<?xml version="1.0" encoding="utf-8"?>
<!-- Generator: Adobe Illustrator 25.0.1, SVG Export Plug-In . SVG Version: 6.00 Build 0)  -->
<svg version="1.1" id="Layer_1" xmlns="http://www.w3.org/2000/svg" xmlns:xlink="http://www.w3.org/1999/xlink" x="0px" y="0px"
	 viewBox="0 0 19.2 19.2" style="enable-background:new 0 0 19.2 19.2;" xml:space="preserve">
<g>
	<path d="M1,19V0.3h5.1v14.4h4.4V19H1L1,19z"/>
	<g>
		<path d="M18.1,18.9h-6.4v-1.7h4.9v-1.5h1.5V18.9L18.1,18.9z"/>
		<path d="M18.2,13.2c0,1.5-1.1,2.4-3.3,2.4c-2.3,0-3.3-1.1-3.3-2.5c0-1.5,1-2.4,3.3-2.4S18.2,11.8,18.2,13.2z M13,13.2
			c0,0.5,0.9,0.7,1.9,0.7s2-0.2,2-0.7c0-0.5-0.9-0.7-1.9-0.7S13,12.7,13,13.2z"/>
		<path d="M18.2,7.4c0,1.7-1.1,2.8-3.2,2.8c-2.1,0-3.3-1.1-3.3-3.1c0-0.5,0.1-1,0.2-1.4l1.5,0.3c-0.2,0.3-0.2,0.5-0.2,0.9
			c0,1,0.8,1.5,1.9,1.5c1,0,1.8-0.3,1.8-0.9c0-0.1,0-0.2,0-0.2h-0.7v0.5h-1.3V5.7h3.1C18.1,6.1,18.2,6.9,18.2,7.4z"/>
		<path d="M18.2,2.7c0,1.5-1.1,2.4-3.3,2.4c-2.3,0-3.3-1.1-3.3-2.5c0-1.5,1-2.5,3.3-2.5C17.2,0.3,18.2,1.3,18.2,2.7z M13,2.7
			c0,0.5,0.9,0.7,1.9,0.7s2-0.2,2-0.7S15.9,2,14.9,2S13,2.2,13,2.7z"/>
	</g>
</g>
</svg>
