<?xml version="1.0" encoding="utf-8"?>
<!-- Generator: Adobe Illustrator 25.0.1, SVG Export Plug-In . SVG Version: 6.00 Build 0)  -->
<svg version="1.1" id="Layer_1" xmlns="http://www.w3.org/2000/svg" xmlns:xlink="http://www.w3.org/1999/xlink" x="0px" y="0px"
	 viewBox="0 0 60 19.2" style="enable-background:new 0 0 60 19.2;" xml:space="preserve">
<g>
	<path d="M2.6,18.9V0.2h5.1v14.4h4.4v4.3L2.6,18.9L2.6,18.9z"/>
	<path d="M19.5,19.2c-4.4,0-7.1-3.1-7.1-9.6c0-6.7,3.1-9.6,7.2-9.6c4.4,0,7.1,3,7.1,9.6C26.7,16.2,23.6,19.2,19.5,19.2z M19.6,3.9
		c-1.5,0-2,2.7-2,5.6s0.5,5.8,2,5.8c1.4,0,2-2.7,2-5.7S21,3.9,19.6,3.9z"/>
	<path d="M36.6,19.2c-5.1,0-8.3-3.1-8.3-9.4c0-6.1,3.3-9.8,9-9.8c1.6,0,2.9,0.2,4.1,0.7l-1,4.3c-0.8-0.5-1.6-0.7-2.5-0.7
		c-3,0-4.3,2.3-4.3,5.6c0,3,0.8,5.3,2.7,5.3c0.2,0,0.5,0,0.6,0v-2.2h-1.6V9.2h6.3v9C40.2,18.8,38.1,19.2,36.6,19.2z"/>
	<path d="M50.2,19.2c-4.4,0-7.1-3.1-7.1-9.6c0-6.7,3.1-9.6,7.2-9.6c4.4,0,7.2,3,7.2,9.6C57.4,16.2,54.3,19.2,50.2,19.2z M50.3,3.9
		c-1.5,0-2,2.7-2,5.6s0.5,5.8,2,5.8s2-2.7,2-5.7S51.7,3.9,50.3,3.9z"/>
</g>
</svg>
